<?xml version="1.0" encoding="utf-8"?>
<!-- Generator: Adobe Illustrator 22.0.1, SVG Export Plug-In . SVG Version: 6.00 Build 0)  -->
<svg version="1.1" id="katman_1" xmlns="http://www.w3.org/2000/svg" xmlns:xlink="http://www.w3.org/1999/xlink" x="0px" y="0px"
	 viewBox="0 0 164.8 41.9" style="enable-background:new 0 0 164.8 41.9;" xml:space="preserve">
<style type="text/css">
	.st0{fill:#404040;}
	.st1{fill:#D4D4D4;}
</style>
<g>
	<path class="st0" d="M61.2,16.7c0.1-0.2,0-0.5,0-0.7c0-4.8,0-9.7,0-14.5c0-0.1,0-0.3,0-0.4c0-0.3,0.1-0.4,0.4-0.4c2.6,0,5.3,0,8,0
		c0.4,0,0.4,0,0.4,0.4c0,0.1,0,0.2,0,0.3c0,9.7,0,19.5,0,29.2c0,0.8,0.1,0.7-0.7,0.7c-2.5,0-5,0-7.5,0c-0.3,0-0.4,0-0.6-0.3
		c-0.7-1.1-1.3-2.2-2-3.3s-1.3-2.1-2-3.2c-1.1-1.8-2.2-3.6-3.3-5.4c-0.5-0.9-1.1-1.8-1.6-2.7c-0.1-0.2-0.1-0.5-0.4-0.7
		c-0.1,0.2,0,0.4,0,0.6c0,4.7,0,9.4,0,14.1c0,0.1,0,0.3,0,0.4c0,0.4,0,0.4-0.4,0.4c-2.6,0-5.3,0-7.9,0c-0.4,0-0.4,0-0.4-0.4
		c0-0.1,0-0.2,0-0.2c0-9.8,0-19.5,0-29.3c0-0.8-0.1-0.7,0.7-0.7c2.5,0,5,0,7.4,0c0.4,0,0.6,0.1,0.8,0.5c1.5,2.6,3.1,5.3,4.6,7.9
		c1.4,2.3,2.7,4.7,4.1,7C60.9,16.2,60.9,16.5,61.2,16.7C61.2,16.7,61.2,16.8,61.2,16.7C61.2,16.8,61.2,16.8,61.2,16.7
		C61.3,16.7,61.2,16.7,61.2,16.7z"/>
	<path class="st0" d="M74.7,16c0-4.9,0-9.8,0-14.6c0-0.7-0.1-0.7,0.7-0.7c7.3,0,14.6,0,21.9,0C98,0.7,98,0.6,98,1.4
		c0,1.8,0,3.5,0,5.3c0,0.6,0,0.5-0.5,0.5c-4.4,0-8.8,0-13.2,0c-0.8,0-0.7-0.1-0.7,0.7c0,1.5,0,2.9,0,4.4c0,0.6,0,0.5,0.5,0.5
		c3.9,0,7.7,0,11.6,0c0.7,0,0.6-0.1,0.6,0.7c0,1.7,0,3.5,0,5.2c0,0.7,0.1,0.6-0.6,0.6c-3.7,0-7.4,0-11.2,0c-1,0-1,0-1,0.9
		c0,1.4,0,2.8,0,4.2c0,0.6,0,0.6,0.6,0.6c4.4,0,8.9,0,13.4,0c0.9,0,0.8-0.1,0.8,0.8c0,1.7,0,3.4,0,5.1c0,0.7,0,0.6-0.6,0.6
		c-7.2,0-14.4,0-21.6,0c-0.3,0-0.7,0-1,0c-0.2,0-0.3-0.1-0.3-0.3c0-0.1,0-0.3,0-0.4C74.7,25.8,74.7,20.9,74.7,16z"/>
	<path class="st0" d="M14.7,6.8c-1.1-0.2-2.1,0-3.1,0.4c-1.1,0.5-1.5,1.4-1.2,2.6c0.2,0.5,0.6,0.9,1.1,1.1c0.9,0.5,1.9,0.9,2.9,1.2
		c1.6,0.6,3.2,1.1,4.8,1.8c1.2,0.5,2.3,1.1,3.4,1.9c1,0.7,1.6,1.7,2,2.8c0.8,2,0.8,4.1,0.2,6.2c-0.4,1.4-1.3,2.6-2.4,3.6
		s-2.4,1.8-3.8,2.3c-0.9,0.3-1.9,0.5-2.8,0.7c-3,0.4-5.9,0.1-8.8-0.6c-0.7-0.2-1.5-0.3-2.2-0.6c-1.5-0.6-3.1-1.1-4.5-1.9
		C0,28.1,0,28.1,0.1,27.7c0.4-0.9,0.7-1.8,1.1-2.8S2,23,2.3,22c0.1-0.2,0.2-0.2,0.4-0.1C2.9,22,3,22.1,3.2,22.1
		c2.5,1.4,5.2,2.3,8.1,2.5c1.1,0.1,2.1,0.1,3.1-0.3c1.1-0.4,1.6-1.3,1.5-2.4c-0.1-0.7-0.4-1.2-1-1.5c-0.6-0.4-1.2-0.6-1.8-0.8
		c-1.6-0.5-3.1-1.1-4.7-1.8c-1.7-0.7-3.3-1.6-4.8-2.8c-0.8-0.6-1.4-1.3-1.9-2.1c-0.3-0.5-0.6-1.1-0.6-1.8c0-0.2-0.1-0.4-0.1-0.7
		c0-0.1,0-0.2,0-0.2C1,9.6,1,9,1,8.3c0.1-0.1,0.1-0.2,0-0.4c0.1-0.5,0.2-1,0.2-1.5c0.1-0.6,0.4-1.1,0.6-1.6c0.5-0.7,1.3-1.3,2-2
		C4.3,2.3,5,2,5.6,1.7C7.1,1,8.7,0.6,10.3,0.3C12.1,0,13.8,0,15.6,0.1s3.5,0.4,5.2,0.9c1.3,0.4,2.6,0.8,3.9,1.3
		c0.2,0.1,0.2,0.2,0.2,0.4c-0.8,2-1.6,3.9-2.3,5.9c-0.1,0.3-0.3,0.3-0.5,0.2c-0.4-0.1-0.7-0.3-1.1-0.4c-0.7-0.3-1.4-0.5-2.1-0.7
		s-1.5-0.5-2.2-0.6c-0.5-0.1-1-0.2-1.5-0.2C14.9,6.8,14.8,6.8,14.7,6.8z"/>
	<path class="st0" d="M102.3,16c0-4.8,0-9.7,0-14.5c0-0.1,0-0.3,0-0.4c0-0.3,0.1-0.4,0.4-0.4c0.2,0,0.5,0,0.8,0c6.9,0,13.8,0,20.7,0
		c0.8,0,0.7-0.1,0.7,0.7c0,1.7,0,3.4,0,5.1c0,0.7,0.1,0.6-0.7,0.6c-4.2,0-8.3,0-12.4,0c-0.7,0-0.6-0.1-0.6,0.7c0,1.5,0,2.9,0,4.4
		c0,0.5,0,0.5,0.5,0.5c3.8,0,7.6,0,11.4,0c0.1,0,0.3,0,0.4,0c0.5,0,0.5,0,0.5,0.5c0,1.8,0,3.6,0,5.4c0,0.5,0,0.5-0.5,0.5
		c-3.9,0-7.7,0-11.6,0c-0.7,0-0.7-0.1-0.7,0.7c0,3.5,0,7,0,10.6c0,0.1,0,0.2,0,0.4c0,0.6,0,0.6-0.6,0.6c-2.6,0-5.1,0-7.7,0
		c-0.6,0-0.6,0-0.6-0.6C102.3,25.8,102.3,20.9,102.3,16z"/>
	<path class="st0" d="M151.4,24.9c0.2,0,0.4,0,0.6,0c4,0,7.9,0,11.9,0c0.1,0,0.2,0,0.4,0c0.5,0,0.5,0,0.5,0.5c0,1.8,0,3.6,0,5.5
		c0,0.5,0,0.5-0.5,0.5c-7.1,0-14.2,0-21.3,0c-0.5,0-0.5,0-0.5-0.5c0-6,0-12,0-18c0-3.8,0-7.6,0-11.4c0-0.1,0-0.2,0-0.4
		c0-0.3,0.1-0.4,0.4-0.4c2.7,0,5.3,0,8,0c0.3,0,0.4,0.1,0.4,0.4c0,0.1,0,0.3,0,0.4c0,7.5,0,15,0,22.5c0,0.2,0,0.5,0,0.7
		C151.2,24.8,151.3,24.9,151.4,24.9z"/>
	<path class="st0" d="M129.2,19.8c0-3.6,0-7.2,0-10.8c0-0.1,0-0.2,0-0.4c0-0.3,0.1-0.4,0.4-0.4c2.6,0,5.3,0,7.9,0
		c0.4,0,0.4,0,0.5,0.4c0,0.1,0,0.2,0,0.4c0,7.2,0,14.4,0,21.5c0,0.1,0,0.3,0,0.4c0,0.3-0.1,0.4-0.4,0.4c-2.7,0-5.3,0-8,0
		c-0.3,0-0.4-0.1-0.4-0.4c0-0.1,0-0.2,0-0.4C129.2,27,129.2,23.4,129.2,19.8z"/>
	<path class="st0" d="M29.6,19.8c0-3.6,0-7.2,0-10.8c0-0.1,0-0.2,0-0.4c0-0.4,0-0.4,0.4-0.4c2.6,0,5.3,0,7.9,0c0.4,0,0.4,0,0.4,0.4
		c0,0.1,0,0.2,0,0.4c0,7.2,0,14.4,0,21.6c0,0.1,0,0.2,0,0.2c0,0.5,0,0.5-0.5,0.5c-2.6,0-5.1,0-7.7,0c-0.6,0-0.6,0-0.6-0.6
		C29.6,27.1,29.6,23.5,29.6,19.8z"/>
	<path class="st0" d="M33.9,6.2c-1.3,0-2.6,0-3.9,0c-0.4,0-0.4,0-0.4-0.4c0-1.6,0-3.2,0-4.8c0-0.4,0-0.4,0.4-0.4c2.6,0,5.2,0,7.8,0
		c0.4,0,0.4,0,0.4,0.4c0,1.6,0,3.2,0,4.8c0,0.4,0,0.4-0.4,0.4C36.5,6.2,35.2,6.2,33.9,6.2z"/>
	<path class="st0" d="M133.5,6.2c-1.3,0-2.6,0-3.8,0c-0.4,0-0.4,0-0.4-0.4c0-1.6,0-3.3,0-4.9c0-0.3,0.1-0.4,0.4-0.4
		c2.6,0,5.2,0,7.8,0c0.3,0,0.4,0.1,0.4,0.4c0,1.6,0,3.3,0,4.9c0,0.3-0.1,0.4-0.4,0.4C136.2,6.2,134.9,6.2,133.5,6.2z"/>
	<path class="st0" d="M133.9,37.5C134,37.6,134,37.6,133.9,37.5c1.6,0.8,1.3,2.8,0.4,3.6c-0.4,0.4-0.8,0.6-1.3,0.7
		c-1.1,0.2-2.3,0.1-3.4,0.1c-0.2,0-0.4-0.1-0.4-0.4c0-0.1,0-0.2,0-0.4c0-2.3,0-4.6,0-7c0-0.1,0-0.3,0-0.4c0-0.2,0.1-0.3,0.3-0.3
		c1.2,0,2.4-0.1,3.6,0.1c1.5,0.3,1.9,2,1.2,2.9c-0.2,0.2-0.3,0.5-0.5,0.7C133.8,37.4,133.7,37.4,133.9,37.5z M131.6,40.6
		c0.6,0,0.9-0.1,1.2-0.3c0.7-0.4,0.8-1.4,0.2-1.8c-0.5-0.4-1.1-0.4-1.8-0.4c-0.3,0-0.4,0.2-0.4,0.5c0,0.4,0,0.9,0,1.3
		C130.9,40.5,131,40.7,131.6,40.6z M130.8,35.9L130.8,35.9c0,0.2,0,0.5,0,0.7s0.1,0.4,0.4,0.4c0.4,0,0.9,0,1.3-0.1
		c0.5-0.2,0.7-0.6,0.7-1.2c0-0.5-0.3-0.8-0.9-0.9c-0.1,0-0.2,0-0.3,0C130.9,34.7,130.8,34.8,130.8,35.9L130.8,35.9z"/>
	<path class="st0" d="M164.7,41.9c-0.5,0.1-1,0-1.5,0c-0.2,0-0.3-0.1-0.3-0.3c0-0.4-0.2-0.7-0.3-1c-0.1-0.2-0.2-0.4-0.5-0.4
		c-0.6,0-1.3,0-1.9,0c-0.5,0-0.7,0.2-0.8,0.7c0,0,0,0,0,0.1c-0.2,1.1-0.3,0.9-1.3,0.9c-0.3,0-0.4-0.1-0.4-0.4c0-0.4,0.1-0.7,0.2-1.1
		c0.3-0.9,0.5-1.8,0.9-2.8c0.3-1,0.6-2.1,0.9-3.1c0.1-0.2,0.2-0.5,0.2-0.7s0.2-0.3,0.4-0.3c0.5,0,1,0,1.5,0c0.4,0,0.5,0.2,0.6,0.6
		c0.2,0.8,0.5,1.6,0.7,2.4c0.5,1.7,1,3.3,1.5,5C164.6,41.7,164.7,41.8,164.7,41.9z M161.1,35.3L161.1,35.3c-0.4,1.1-0.7,2.2-1,3.3
		v0.1c0,0.2,0,0.2,0.2,0.2c0.6,0,1.2,0,1.8,0C161.8,37.7,161.5,36.5,161.1,35.3z"/>
	<path class="st0" d="M139.2,37.6c0-1.2,0-2.5,0-3.7c0-0.4,0-0.4,0.4-0.4c1.3,0,2.7,0,4.1,0c0.4,0,0.5,0.1,0.5,0.5
		c0,0.1,0,0.3,0,0.4c-0.1,0.4-0.1,0.4-0.5,0.4c-0.7,0-1.4,0-2.1,0c-0.1,0-0.2,0-0.4,0c-0.3,0-0.4,0.1-0.4,0.4c0,0.4,0,0.7,0,1.1
		c0,0.6,0.2,0.8,0.7,0.7c0.7,0,1.3,0,2,0c0.6,0,0.6,0,0.6,0.6c0,0.1,0,0.1,0,0.2c0,0.4-0.1,0.5-0.5,0.5c-0.6,0-1.3,0-1.9,0
		c-0.1,0-0.3,0-0.4,0c-0.3,0-0.4,0.2-0.4,0.4c0,0.5,0,1,0,1.5c0,0.4,0.1,0.4,0.4,0.4c0.6,0,1.2,0,1.8,0c0.2,0,0.4,0,0.5,0
		c0.7,0,0.8,0.1,0.7,0.8c0,0.4-0.1,0.5-0.6,0.5c-1.3,0-2.6,0-3.9,0c-0.5,0-0.5,0-0.5-0.5C139.2,40.1,139.2,38.9,139.2,37.6
		L139.2,37.6z"/>
	<path class="st0" d="M152.2,38.8c0,0.6,0,1.5,0,2.5c0,0.5-0.1,0.6-0.6,0.6c-0.1,0-0.1,0-0.2,0c-0.8,0-0.8,0-0.8-0.8
		c0-1.8,0-3.6,0-5.5c0-0.2,0-0.3,0-0.4c0-0.2-0.2-0.3-0.4-0.3c-0.5,0-1,0-1.5,0c-0.3,0-0.4-0.1-0.4-0.4c0,0,0,0,0-0.1
		c-0.1-0.9-0.1-0.9,0.8-0.9c1.5,0,3,0,4.5,0h0.1c0.7,0,0.9,0.5,0.6,1.1c-0.1,0.1-0.2,0.2-0.3,0.2c-0.4,0-0.7,0-1-0.1
		c-0.6-0.1-1,0.2-0.9,0.9C152.3,36.5,152.2,37.5,152.2,38.8z"/>
	<path class="st1" d="M1,8.1c0.1,0.1,0,0.2,0,0.4C0.9,8.3,0.9,8.2,1,8.1z"/>
	<path class="st1" d="M14.7,6.8c0.1-0.1,0.2,0,0.2,0C14.9,6.9,14.8,6.9,14.7,6.8z"/>
	<path class="st1" d="M1,10.3c0.1,0.1,0.1,0.2,0,0.2S0.9,10.4,1,10.3z"/>
	<path class="st1" d="M133.9,37.5c-0.2-0.1-0.1-0.2,0-0.2C133.9,37.4,133.9,37.4,133.9,37.5z"/>
	<path class="st1" d="M61.2,16.7L61.2,16.7C61.2,16.8,61.2,16.8,61.2,16.7C61.2,16.8,61.2,16.7,61.2,16.7L61.2,16.7z"/>
	<path class="st1" d="M151.4,24.9c-0.1,0-0.1,0-0.1-0.1C151.3,24.8,151.3,24.8,151.4,24.9z"/>
</g>
</svg>
